<?xml version="1.0" encoding="UTF-8"?>
<svg id="_レイヤー_2" data-name="レイヤー 2" xmlns="http://www.w3.org/2000/svg" viewBox="0 0 277.49 282.36">
  <defs>
    <style>
      .cls-1 {
        fill: #fff;
      }

      .cls-2 {
        fill: #fbcb00;
      }

      .cls-3 {
        fill: #737061;
      }

      .cls-4 {
        fill: #904e25;
      }
    </style>
  </defs>
  <g id="_メイン" data-name="メイン">
    <g id="_デザイン" data-name="デザイン">
      <g>
        <path class="cls-4" d="m180.37,258.93c-.06,3.29-4.95,3.29-5.01,0,.06-3.29,4.95-3.29,5.01,0Z"/>
        <g>
          <path class="cls-2" d="m249.86,135.32c.59,8.22-.19,21.58-11.98,42.82-7.06,12.72-46.67,84.04-112.95,82.09-31.98-.94-54.56-18.49-69.01-29.73C42.79,220.3.18,187.17,0,135.32c-.12-35.28,19.46-60.26,28.4-71.66,6.95-8.86,44.16-56.33,96.53-53.25,33.86,1.99,55.78,26.77,99.63,76.32,14.08,15.91,23.97,29.92,25.3,48.59Z"/>
          <path class="cls-1" d="m275.02,279.93v-34.63c2.07-54.81-27.41-79.04-60.75-94-8.49-4.56-9.62-5.01-36.11-5.37-26.49.36-27.62.81-36.11,5.37-33.41,14.96-62.84,39.33-60.75,94,0,14.9,0,34.63,0,34.63"/>
          <path class="cls-3" d="m277.49,279.93v-34.63c0-17.41-1.76-31.06-5.86-42.62-8.33-27.74-43.32-48.84-56.33-53.63-3.6-1.94-6.25-3.32-10.18-4.13-5.07-1.05-12.07-1.25-26.96-1.46-13.24.18-20.24.37-25.18,1.14-4.84.74-7.76,2.18-11.96,4.45-13.37,4.96-48.01,26.02-56.32,53.63-4.11,11.56-5.86,25.21-5.86,42.61v34.63c.05,3.22,4.88,3.27,4.94,0,.93-32.82-6.4-76.17,24.04-103.36,12.01-11.16,22.76-17.51,35.28-23.02,3.58-1.9,5.48-3.01,9.12-3.79,4.26-.9,11.09-1.16,25.95-1.36,13.2.18,20.07.39,24.43,1.08,4.54.73,6.5,1.86,10.64,4.06,12.9,4.74,46.03,24.97,53.75,50.79,3.84,10.8,5.58,23.87,5.58,40.96v34.63c.03,3.19,4.89,3.29,4.94,0h0Z"/>
          <path class="cls-2" d="m211.07,156.85c12.49,36.3-30.11,45.37-32.91,13.69-2.8,31.68-45.4,22.62-32.91-13.69h65.81Z"/>
          <path class="cls-3" d="m212.59,154.72h-68.86c-13.74,35.71,24.34,49.61,34.43,24.79,10.09,24.82,48.17,10.92,34.43-24.79Zm-32.3,15.63h-4.25c-3.01,29.11-39.26,19.43-29.26-11.36h62.77c9.99,30.78-26.24,40.49-29.26,11.36Z"/>
          <path class="cls-4" d="m180.37,207.08c-.06,3.29-4.95,3.29-5.01,0,.06-3.29,4.95-3.29,5.01,0Z"/>
          <path class="cls-4" d="m180.37,233c-.06,3.29-4.95,3.29-5.01,0,.06-3.29,4.95-3.29,5.01,0Z"/>
          <path class="cls-1" d="m231.91,77.16h-.51c-2.11-32.43-17.75-58.42-53.25-58.42s-51.14,25.99-53.25,58.42h-.51c-6.95-4.11-17.03,3.78-15.44,13.31,3.33,20,4.65,24.95,10.59,27.95,3.03,1.53,5.81,1.59,5.81,1.59h.6c1.98,12.58,4.86,20.24,9.93,27.3,7.75,10.79,28.73,17.83,42.26,17.83s34.52-7.04,42.26-17.83c5.07-7.06,7.95-14.72,9.93-27.3h.6s2.78-.05,5.81-1.59c5.94-3,7.26-7.96,10.59-27.95,1.59-9.52-8.5-17.41-15.44-13.31Z"/>
          <path class="cls-3" d="m233.62,73.43c-1.87-20.15-9.24-40.04-27.21-50.62-31.01-16.77-71.34-3.52-80.34,32.59-.56,1.86-2.58,10.31-3.53,18.01-8.91-1.97-17.87,7.88-16.02,17.04,2.7,11.2,1.49,23.84,11.91,29.75,1.83.97,4.06,1.54,5.75,1.76.6,3.72,1.23,6.84,1.95,9.56,2.35,8,4.8,14.61,11.07,20.29,9.06,7.7,22.12,14.53,34.36,15.57,17.12,2.06,34.71-4.45,47.53-15.57,7.59-7.21,9.74-14.56,12.19-25.15.29-1.45.57-3.01.84-4.69,2.53-.33,6.06-1.55,8.15-3.24,7.6-6.59,7.91-20.23,9.72-30.69.21-8.41-8.24-16.51-16.37-14.6Zm9.09,28.49c-1.11,6.61-3.26,13.62-9.85,14.96.43-3.28.85-6.97,1.25-11.18.32-3.16-4.63-3.69-4.92-.48h0c-2.71,19.76-1.87,30.29-13.39,42.89-13.21,11.67-32.99,17.7-50.48,13.22-18.77-5.94-32.29-14.91-35.46-35.66-1-5.03-1.89-11.53-2.75-20.46-.13-1.36-1.34-2.35-2.7-2.22-1.36.13-2.35,1.34-2.22,2.7.41,4.2.82,7.88,1.25,11.16-6.62-1.38-8.66-8.11-9.88-15.1-.38-4.3-3.6-12.25-1.51-17.6,1.59-3.77,5.99-7.11,10.02-5.77-.24,4.89.33,8.61,2.57,8.63,1.37,0,2.47-1.11,2.47-2.47h0c-1.02-45.99,28.75-76.78,74.45-58.75,21.33,10.82,27.56,35.7,27.61,58.75-.08,3.19,5.01,3.22,4.94,0,0-2.01-.05-4.03-.15-6.06,5.41-2,11.21,4.04,11.08,9.53-.49,5.02-1.72,10.44-2.34,13.89Z"/>
          <path class="cls-3" d="m192.61,60.15c-7.13,12.47-55.71,37.44-55.71,37.44,0,0-3.08-20.89.48-32.13-12.47,11.27-6.99,49.35-6.99,49.35l.83,32.47c.1,3.73-4.07,6.07-7.16,3.98-19.67-13.36-27.07-31.35-27.07-66.71,0-39.25,36.82-106.94,103.41-77.22,81.39,6.24,69.93,120.78,35.7,142.61-2.37,1.51-5.6.54-6.68-2.06-8.5-20.46-9.51-72.27-9.51-72.27l-27.32-15.46Z"/>
          <path class="cls-3" d="m190.04,139.58c-1.56,1.52-7.65,2.51-12.2,2.51s-10.63-.99-12.2-2.51c-1.29-1.25-2.06.45-.9,1.97,1.16,1.52,6.36,3.78,13.09,3.78s11.93-2.26,13.09-3.78c1.16-1.52.39-3.22-.9-1.97Z"/>
          <path class="cls-1" d="m181.26,119.54c0,2.85-1.52,5.16-3.39,5.16s-3.39-2.31-3.39-5.16,1.52-5.16,3.39-5.16c1.87,0,3.39,2.31,3.39,5.16Z"/>
          <path class="cls-3" d="m174.19,116.56c.91-3.82,1.58-4.65,2.02-4.55.47.11.53,1.21-.36,4.91-.43,1.94-.82,4.2.12,5.36.95.99,2.29,1.08,2.91,1.32.69.18.94.41.94.64,0,.24-.25.44-1.03.56-.39.07-.92.04-1.62-.06-.68-.15-1.66-.4-2.51-1.37-.89-1.09-1-2.44-.96-3.56.04-1.15.26-2.21.49-3.26Z"/>
          <g>
            <ellipse class="cls-3" cx="157.11" cy="108.93" rx="6.27" ry="9.69"/>
            <ellipse class="cls-3" cx="199.22" cy="108.93" rx="6.27" ry="9.69"/>
          </g>
          <ellipse class="cls-1" cx="157.11" cy="105.86" rx="2.99" ry="3.36"/>
          <ellipse class="cls-1" cx="199.22" cy="105.86" rx="2.99" ry="3.36"/>
        </g>
        <g>
          <path class="cls-3" d="m170.47,90.05c-.06-.66-.51-1.21-1.14-1.39-7.87-2.31-21.65-2.39-26.1,3.01-1.1,2.09,1.74,1.15,3.88.5,6.27-1.92,18.54-.77,21.41,0,1.87.5,2.05-1,1.95-2.12Z"/>
          <path class="cls-3" d="m185.85,90.05c.06-.66.51-1.21,1.14-1.39,7.87-2.31,21.65-2.39,26.1,3.01,1.1,2.09-1.74,1.15-3.88.5-6.27-1.92-18.54-.77-21.41,0-1.87.5-2.05-1-1.95-2.12Z"/>
        </g>
      </g>
    </g>
  </g>
</svg>