<?xml version="1.0" encoding="UTF-8"?>
<svg id="_レイヤー_2" data-name="レイヤー 2" xmlns="http://www.w3.org/2000/svg" viewBox="0 0 145 123">
  <defs>
    <style>
      .cls-1 {
        fill: #fff;
      }

      .cls-2 {
        fill: #737061;
      }
    </style>
  </defs>
  <g id="_メイン" data-name="メイン">
    <g id="_デザイン" data-name="デザイン">
      <g>
        <path class="cls-2" d="m141.37,0H3.63C1.63,0,0,1.65,0,3.68v115.63c0,2.04,1.63,3.69,3.63,3.69h137.74c2.01,0,3.63-1.65,3.63-3.68V3.68c0-2.04-1.63-3.68-3.63-3.68Zm-2.8,107.74c0,1.91-1.53,3.46-3.41,3.46H10.18c-1.88,0-3.41-1.55-3.41-3.46V22.18c0-1.91,1.53-3.46,3.41-3.46h124.98c1.88,0,3.41,1.55,3.41,3.46v85.55Z"/>
        <rect class="cls-1" x="11.02" y="5.34" width="6.66" height="6.76" rx="2.44" ry="2.44"/>
        <rect class="cls-1" x="21.12" y="5.34" width="6.66" height="6.76" rx="2.44" ry="2.44"/>
        <rect class="cls-1" x="30.95" y="5.34" width="6.66" height="6.76" rx="2.37" ry="2.37"/>
        <g>
          <path class="cls-2" d="m36.59,67.66c-.93-.45-1.41-1.2-1.41-2.14s.48-1.69,1.41-2.14l17.83-8.69c.15-.08.44-.15.78-.15.89,0,1.48.86,1.48,1.69s-.22,1.2-1.04,1.58l-16.31,7.71,16.31,7.71c.82.38,1.04.75,1.04,1.58s-.59,1.69-1.48,1.69c-.33,0-.63-.08-.78-.15l-17.83-8.69Z"/>
          <path class="cls-2" d="m68.13,82.89c-.15.41-.59.75-1.07.75-1.07,0-1.85-.64-1.85-1.2,0-.34.04-.6.15-.9l13.16-33.39c.15-.41.59-.75,1.07-.75,1.07,0,1.85.64,1.85,1.2,0,.34-.04.6-.15.9l-13.16,33.39Z"/>
          <path class="cls-2" d="m110.05,63.38c.93.45,1.41,1.2,1.41,2.14s-.48,1.69-1.41,2.14l-17.83,8.69c-.15.08-.44.15-.78.15-.89,0-1.48-.86-1.48-1.69s.22-1.2,1.04-1.58l16.31-7.71-16.31-7.71c-.82-.38-1.04-.75-1.04-1.58s.59-1.69,1.48-1.69c.33,0,.63.08.78.15l17.83,8.69Z"/>
        </g>
      </g>
    </g>
  </g>
</svg>