<?xml version="1.0" encoding="UTF-8"?>
<svg id="_レイヤー_2" data-name="レイヤー 2" xmlns="http://www.w3.org/2000/svg" viewBox="0 0 827.08 294.15">
  <defs>
    <style>
      .cls-1 {
        font-family: TsukuBRdGothicStd-B-90ms-RKSJ-H, 'FOT-TsukuBRdGothic Std';
        font-size: 53.75px;
      }

      .cls-1, .cls-2 {
        fill: #904e25;
      }

      .cls-3 {
        fill: #ea6100;
      }

      .cls-4 {
        fill: #fbcb00;
      }

      .cls-5 {
        fill: #15722c;
      }
    </style>
  </defs>
  <g id="_メイン" data-name="メイン">
    <g id="_デザイン" data-name="デザイン">
      <g>
        <g>
          <path class="cls-2" d="m52.26,228.11h20.24v44.56c0,.84-.68,1.52-1.52,1.52h-17.21c-.84,0-1.52-.68-1.52-1.52v-44.56h0Z"/>
          <ellipse class="cls-5" cx="87.25" cy="215.5" rx="35.75" ry="35.65"/>
          <ellipse class="cls-5" cx="35.75" cy="215.5" rx="35.75" ry="35.65"/>
          <ellipse class="cls-5" cx="62.38" cy="179.85" rx="35.75" ry="35.65"/>
        </g>
        <g>
          <path class="cls-2" d="m144,137.16h14.31v31.54c0,.59-.48,1.07-1.07,1.07h-12.17c-.59,0-1.07-.48-1.07-1.07v-31.54h0Z"/>
          <ellipse class="cls-5" cx="168.75" cy="128.23" rx="25.29" ry="25.23"/>
          <ellipse class="cls-5" cx="132.32" cy="128.23" rx="25.29" ry="25.23"/>
          <ellipse class="cls-5" cx="151.16" cy="103" rx="25.29" ry="25.23"/>
        </g>
        <circle class="cls-3" cx="282.2" cy="120.31" r="23.88"/>
        <path class="cls-4" d="m266.42,201.69l-5.39,34.08c-.18,1.14.94,2.04,2.01,1.63l32.21-12.37c1.07-.41,1.3-1.83.4-2.55l-26.82-21.71c-.89-.72-2.23-.21-2.41.93Z"/>
        <rect class="cls-5" x="350.26" y="23.38" width="35.81" height="35.81" rx="1.55" ry="1.55" transform="translate(18.81 -82.01) rotate(13.04)"/>
        <circle class="cls-3" cx="620.29" cy="20.38" r="20.38"/>
        <path class="cls-4" d="m710.41,31.7l-7.22,45.65c-.24,1.52,1.26,2.73,2.69,2.18l43.14-16.57c1.44-.55,1.74-2.45.54-3.42l-35.93-29.08c-1.2-.97-2.99-.28-3.23,1.24Z"/>
        <rect class="cls-5" x="480.14" y="246.9" width="32.03" height="32.03" rx="1.39" ry="1.39" transform="translate(72.12 -105.17) rotate(13.04)"/>
        <circle class="cls-3" cx="762.55" cy="239.21" r="11.94"/>
        <path class="cls-4" d="m484.61,6.13l-5.62,35.73c-.19,1.19.98,2.14,2.11,1.7l33.72-12.96c1.12-.43,1.36-1.92.42-2.68l-28.1-22.78c-.94-.76-2.34-.22-2.53.97Z"/>
        <rect class="cls-5" x="793.2" y="125.36" width="31.05" height="31.05" rx="1.34" ry="1.34" transform="translate(52.65 -178.85) rotate(13.04)"/>
        <circle class="cls-3" cx="368.03" cy="258.6" r="18.36"/>
        <path class="cls-4" d="m631.34,246.18l-7.22,45.65c-.24,1.52,1.26,2.73,2.69,2.18l43.14-16.57c1.44-.55,1.74-2.45.54-3.42l-35.93-29.08c-1.2-.97-2.99-.28-3.23,1.24Z"/>
        <text class="cls-1" transform="translate(362.22 169.77)"><tspan x="0" y="0">Coming Soon...</tspan></text>
      </g>
    </g>
  </g>
</svg>