<?xml version="1.0" encoding="UTF-8"?>
<svg id="_レイヤー_2" data-name="レイヤー 2" xmlns="http://www.w3.org/2000/svg" viewBox="0 0 418.89 263.53">
  <defs>
    <style>
      .cls-1 {
        fill: #317241;
      }

      .cls-2 {
        fill: #ea6100;
      }

      .cls-3 {
        fill: #ffd300;
      }

      .cls-4 {
        fill: #ffd21a;
      }

      .cls-5 {
        fill: #fbcb00;
      }

      .cls-6 {
        fill: #904e25;
      }

      .cls-7 {
        fill: #fb7000;
      }

      .cls-8 {
        fill: #15722c;
      }
    </style>
  </defs>
  <g id="_メイン" data-name="メイン">
    <g id="_デザイン" data-name="デザイン">
      <g>
        <g>
          <path class="cls-6" d="m33.13,219.36h12.83v28.25c0,.53-.43.96-.96.96h-10.91c-.53,0-.96-.43-.96-.96v-28.25h0Z"/>
          <ellipse class="cls-8" cx="55.31" cy="211.37" rx="22.66" ry="22.6"/>
          <ellipse class="cls-8" cx="22.66" cy="211.37" rx="22.66" ry="22.6"/>
          <ellipse class="cls-8" cx="39.54" cy="188.77" rx="22.66" ry="22.6"/>
        </g>
        <g>
          <path class="cls-6" d="m91.28,161.71h9.07v19.99c0,.38-.3.68-.68.68h-7.71c-.38,0-.68-.3-.68-.68v-19.99h0Z"/>
          <ellipse class="cls-8" cx="106.97" cy="156.05" rx="16.03" ry="15.99"/>
          <ellipse class="cls-8" cx="83.88" cy="156.05" rx="16.03" ry="15.99"/>
          <ellipse class="cls-8" cx="95.82" cy="140.05" rx="16.03" ry="15.99"/>
        </g>
        <path class="cls-4" d="m319.94,158.26h34.08c.31,0,.61.16.84.45.49.65.99,1.29,1.48,1.94.75.98.22,2.67-.84,2.67h-35.2c-.55,0-1.02-.49-1.15-1.19-.12-.65-.24-1.29-.36-1.94-.18-.98.38-1.93,1.15-1.93Z"/>
        <path class="cls-5" d="m286.1.23l-33.42,36.5c-.42.46-.1,1.2.53,1.2h66.85c.63,0,.95-.74.53-1.2L287.16.23c-.29-.31-.78-.31-1.06,0Z"/>
        <rect class="cls-2" x="252.49" y="37.66" width="68.29" height="17.2" rx=".53" ry=".53"/>
        <rect class="cls-2" x="216.95" y="72.08" width="33.89" height="36.93" rx=".54" ry=".54"/>
        <rect class="cls-2" x="321.74" y="72.32" width="33.89" height="36.93" rx=".54" ry=".54"/>
        <rect class="cls-5" x="250.84" y="72.36" width="70.82" height="36.42" rx=".78" ry=".78"/>
        <path class="cls-8" d="m286.91,92.83c-10.36,0-18.77,7.08-18.97,15.87,0,.17.16.31.36.31h37.21c.2,0,.37-.14.36-.31-.2-8.8-8.61-15.87-18.97-15.87Z"/>
        <rect class="cls-2" x="251.01" y="108.67" width="35.41" height="32.88" rx=".52" ry=".52"/>
        <rect class="cls-5" x="286.78" y="108.67" width="35.41" height="32.88" rx=".52" ry=".52"/>
        <rect class="cls-2" x="286.04" y="160.73" width="35.41" height="35.41" rx=".54" ry=".54"/>
        <path class="cls-5" d="m240.44,54.92c-7.67,5.15-15.34,10.31-23.01,15.46-.91.61-.46,1.98.65,1.98,7.65.02,15.3.04,22.95.06.63,0,1.14-.48,1.14-1.09.02-5.17.04-10.35.06-15.52,0-.88-1.04-1.4-1.79-.9Z"/>
        <path class="cls-5" d="m333.36,54.98c7.67,5.15,15.34,10.31,23.01,15.46.91.61.46,1.98-.65,1.98-7.65.02-15.3.04-22.95.06-.63,0-1.14-.48-1.14-1.09-.02-5.17-.04-10.35-.06-15.52,0-.88,1.04-1.4,1.79-.9Z"/>
        <rect class="cls-5" x="321.28" y="160.73" width="35.41" height="35.41" rx=".54" ry=".54"/>
        <path class="cls-1" d="m250.89,157.76h-32.72c-.3,0-.59.16-.8.45-.47.65-.95,1.29-1.42,1.94-.72.98-.21,2.67.8,2.67h33.79c.52,0,.98-.49,1.11-1.19.12-.65.23-1.29.35-1.94.18-.98-.37-1.93-1.11-1.93Z"/>
        <rect class="cls-8" x="215.6" y="160.87" width="35.41" height="35.41" rx=".54" ry=".54"/>
        <rect class="cls-5" x="251.05" y="160.73" width="35.41" height="35.41" rx=".54" ry=".54"/>
        <rect class="cls-8" x="251.05" y="141.6" width="70.82" height="19.22" rx=".57" ry=".57"/>
        <g>
          <path class="cls-2" d="m245.82,154.03c0,1.66-4.53,3-10.12,3s-10.12-1.35-10.12-3v4.45c0,1.66,4.53,3,10.12,3s10.12-1.35,10.12-3v-4.45Z"/>
          <rect class="cls-2" x="225.59" y="127.28" width="20.23" height="30.48" rx=".38" ry=".38"/>
          <path class="cls-2" d="m225.59,131.01c0-1.66,4.53-3,10.12-3s10.12,1.35,10.12,3v-4.45c0-1.66-4.53-3-10.12-3s-10.12,1.35-10.12,3v4.45Z"/>
        </g>
        <rect class="cls-5" x="216.9" y="108.69" width="34.4" height="17.7" rx=".38" ry=".38"/>
        <g>
          <path class="cls-2" d="m349.5,154.03c0,1.66-4.53,3-10.12,3s-10.12-1.35-10.12-3v4.45c0,1.66,4.53,3,10.12,3s10.12-1.35,10.12-3v-4.45Z"/>
          <rect class="cls-2" x="329.27" y="127.28" width="20.23" height="30.48" rx=".38" ry=".38"/>
          <path class="cls-2" d="m329.27,131.01c0-1.66,4.53-3,10.12-3s10.12,1.35,10.12,3v-4.45c0-1.66-4.53-3-10.12-3s-10.12,1.35-10.12,3v4.45Z"/>
        </g>
        <rect class="cls-8" x="321.49" y="108.69" width="34.4" height="17.7" rx=".38" ry=".38"/>
        <rect class="cls-8" x="241.48" y="54.81" width="35.41" height="17.7" rx=".38" ry=".38"/>
        <rect class="cls-8" x="298.45" y="54.89" width="35.41" height="17.7" rx=".38" ry=".38"/>
        <g>
          <path class="cls-3" d="m170.81,245.97l-7.8.78c-.66.07-1.25-.52-1.2-1.2.67-9.62,1.34-19.23,2.02-28.85.03-.42.3-.76.69-.87,2.85-.81,5.7-1.61,8.55-2.42.71-.2,1.43.43,1.36,1.19-.92,10.16-1.84,20.33-2.77,30.49-.04.47-.39.83-.85.88Z"/>
          <path class="cls-5" d="m172.53,214.29c-.93,10.12-1.85,20.25-2.78,30.37-.09.97,1.01,1.6,1.78,1.02,11.13-8.38,22.27-16.76,33.4-25.15.78-.58.46-1.83-.51-2-10.21-1.74-20.42-3.48-30.63-5.23-.63-.11-1.21.34-1.27.98Z"/>
        </g>
        <g>
          <path class="cls-8" d="m411.57,192.58l6.79-3.92c.57-.33.71-1.15.27-1.67-6.16-7.42-12.32-14.83-18.47-22.25-.27-.32-.68-.44-1.06-.3-2.79,1.01-5.57,2.02-8.36,3.02-.69.25-.91,1.19-.41,1.76,6.68,7.71,13.36,15.43,20.04,23.14.31.36.8.45,1.2.22Z"/>
          <path class="cls-8" d="m391.66,167.86c6.66,7.68,13.32,15.36,19.98,23.04.64.73.11,1.89-.85,1.87-13.93-.31-27.87-.62-41.8-.93-.97-.02-1.44-1.22-.75-1.92,7.27-7.37,14.55-14.75,21.82-22.12.45-.46,1.18-.43,1.6.05Z"/>
        </g>
        <g>
          <path class="cls-2" d="m188.18,198.18c-11.11.88-22.22,1.77-33.33,2.65-.07-22.69-.14-45.38-.21-68.07,11.31-.1,22.63-.19,33.94-.29-.14,21.9-.27,43.8-.41,65.7Z"/>
          <path class="cls-7" d="m155.06,200.83c-1.34-.74-2.67-1.48-4.01-2.22-.05-22.21-.1-44.42-.15-66.63,1.27.4,2.54.81,3.82,1.21.11,22.55.22,45.1.34,67.64Z"/>
          <path class="cls-2" d="m150.9,131.98c11.36-.08,22.73-.17,34.09-.25,1.2.25,2.39.5,3.59.74-11.29.24-22.58.48-33.87.72-1.27-.4-2.54-.81-3.82-1.21Z"/>
        </g>
        <g>
          <path class="cls-2" d="m379.24,195.68c6.93,8.73,13.85,17.46,20.78,26.2-18.8,12.7-37.6,25.4-56.4,38.11-6.39-9.34-12.77-18.68-19.16-28.02,18.26-12.09,36.52-24.19,54.78-36.28Z"/>
          <path class="cls-7" d="m399.9,221.71c.13,1.52.26,3.04.39,4.57-18.41,12.42-36.83,24.84-55.24,37.26-.37-1.28-.75-2.56-1.12-3.84,18.66-12.66,37.32-25.32,55.98-37.98Z"/>
          <path class="cls-2" d="m345.05,263.53c-6.4-9.39-12.8-18.78-19.21-28.17-.46-1.13-.92-2.26-1.38-3.4,6.49,9.24,12.98,18.48,19.47,27.72.37,1.28.75,2.56,1.12,3.84Z"/>
        </g>
      </g>
    </g>
  </g>
</svg>