<?xml version="1.0" encoding="UTF-8"?>
<svg id="_レイヤー_2" data-name="レイヤー 2" xmlns="http://www.w3.org/2000/svg" viewBox="0 0 125 123">
  <defs>
    <style>
      .cls-1 {
        fill: #f90;
      }

      .cls-2 {
        fill: #300;
      }
    </style>
  </defs>
  <g id="_メイン" data-name="メイン">
    <g id="_デザイン" data-name="デザイン">
      <g>
        <path class="cls-2" d="m100.77,123H24.23c-13.38,0-24.23-10.96-24.23-24.47V24.47C0,10.96,10.85,0,24.23,0h76.53c13.38,0,24.23,10.96,24.23,24.47v74.06c0,13.51-10.85,24.47-24.23,24.47"/>
        <path class="cls-1" d="m76.1,84.77h-10.14l-4.2-12.65h-20.23l-4.12,12.65h-8.09l17.46-53.11h11.68l17.65,53.11Zm-16.88-20.31l-7.67-23.7-7.67,23.7h15.34Z"/>
        <path class="cls-1" d="m90.67,40.88h-8.79v-9.22h8.79v9.22Zm0,43.89h-8.79v-39.3h8.79v39.3Z"/>
      </g>
    </g>
  </g>
</svg>