<?xml version="1.0" encoding="UTF-8"?>
<svg id="_レイヤー_2" data-name="レイヤー 2" xmlns="http://www.w3.org/2000/svg" viewBox="0 0 46.39 46.39">
  <defs>
    <style>
      .cls-1 {
        stroke-width: .5px;
      }

      .cls-1, .cls-2 {
        fill: none;
        stroke: #904e25;
        stroke-linecap: round;
        stroke-linejoin: round;
      }
    </style>
  </defs>
  <g id="_メイン" data-name="メイン">
    <g id="_デザイン" data-name="デザイン">
      <g>
        <circle class="cls-2" cx="23.19" cy="23.19" r="22.69"/>
        <path class="cls-1" d="m34.11,30.07l-10.7-14.1s-.02-.02-.03-.03c0,0-.01-.02-.03-.03,0,0-.01,0-.02,0-.02-.01-.03-.02-.05-.03-.02,0-.03-.01-.05-.02-.02,0-.03,0-.05,0-.02,0-.04,0-.05,0-.02,0-.03,0-.05.02-.02,0-.04.01-.05.03,0,0-.01,0-.02,0-.01,0-.02.02-.03.03,0,0-.02.01-.03.03l-10.7,14.1c-.09.12-.07.3.05.39.05.04.11.06.17.06.08,0,.17-.04.22-.11l10.47-13.81,10.47,13.81c.06.07.14.11.22.11.06,0,.12-.02.17-.06.12-.09.15-.27.05-.39Z"/>
      </g>
    </g>
  </g>
</svg>