<?xml version="1.0" encoding="UTF-8"?>
<svg id="_レイヤー_2" data-name="レイヤー 2" xmlns="http://www.w3.org/2000/svg" viewBox="0 0 125 123">
  <defs>
    <style>
      .cls-1 {
        fill: #31a7ff;
      }

      .cls-2 {
        fill: #001e36;
      }
    </style>
  </defs>
  <g id="_メイン" data-name="メイン">
    <g id="_デザイン" data-name="デザイン">
      <g>
        <path class="cls-2" d="m106.14,123H19.96c.16-.13.35-.27-.05-.31-.8-.09-1.61-.13-2.39-.29-4.4-.91-8.19-3.03-11.26-6.26C2.09,111.75.05,106.35.03,100.31-.02,74.48,0,48.64,0,22.81c0-2.11.29-4.18.82-6.22C2.25,11.07,5.39,6.77,10.05,3.62,13.95.98,18.37.03,22.98.02,49.05-.01,75.11,0,101.18,0c1.45,0,2.88.09,4.32.25,5.7.63,10.39,3.16,14.09,7.53,2.99,3.54,4.84,7.58,5.02,12.3,0,.13-.08.33.16.39.08-.36.16-.72.23-1.08v83.39c-.32-.14-.27.13-.3.28-.11.82-.14,1.66-.33,2.46-1.8,7.37-6.09,12.66-13.05,15.67-2.04.89-4.15,1.61-6.44,1.3-.09-.01-.18,0-.22.13.45.27,1.02.12,1.48.38Z"/>
        <path class="cls-1" d="m28.12,59.2c0,8.82,0,17.64,0,26.45,0,.21,0,.42,0,.62,0,.36.18.56.54.59.3.02.59.06.89.07,2.94.01,5.87.02,8.81.02.9,0,1.09-.18,1.1-1.11.01-5.19,0-10.39,0-15.58,0-1.03-.04-1.02,1.01-.97,4.8.25,9.61.23,14.23-1.27,6.69-2.17,11.08-6.53,12.41-13.68.57-3.07.54-6.12-.17-9.13-1.12-4.78-3.86-8.41-8.12-10.82-2.6-1.47-5.36-2.42-8.36-2.73-2.67-.27-5.34-.5-8.03-.43-4.47.11-8.94.34-13.41.37q-.9,0-.9.93c0,8.89,0,17.77,0,26.66Z"/>
        <path class="cls-1" d="m73.1,80.13s0,0,0,0c0,1.36,0,2.72,0,4.08,0,1.09.06,1.22,1.09,1.65,1.82.76,3.7,1.3,5.66,1.63,4.83.8,9.63.92,14.33-.65,4.63-1.55,7.83-4.52,8.87-9.47.98-4.66-.19-8.64-3.92-11.7-1.54-1.26-3.31-2.13-5.08-3.02-1.93-.97-4.01-1.58-5.95-2.51-1.16-.55-2.35-1.05-3.27-2-1.35-1.39-.82-3.46,1.05-3.97,1.08-.29,2.18-.5,3.32-.48,2.3.04,4.56.41,6.79.92,1.37.31,2.65.86,3.92,1.46.76.36,1.27.12,1.27-.6,0-2.84,0-5.68,0-8.52,0-.48-.21-.76-.62-.98-.74-.39-1.53-.61-2.33-.8-3.38-.8-6.81-.91-10.25-.82-2.66.07-5.23.56-7.62,1.79-2.9,1.48-5.1,3.61-6.35,6.7-.76,1.87-.82,3.81-.76,5.78.06,2.03.73,3.84,1.93,5.44,1.39,1.85,3.24,3.16,5.21,4.34,2.42,1.45,5.06,2.37,7.64,3.45,1.3.55,2.58,1.13,3.46,2.28.99,1.29.59,2.84-.86,3.57-1.6.81-3.35.83-5.05.75-4.05-.18-7.89-1.27-11.48-3.21-.83-.45-1-.34-1,.65,0,1.41,0,2.82,0,4.22Z"/>
        <path class="cls-2" d="m39.48,50.56c0-2.7.01-5.4-.01-8.1,0-.59.16-.81.77-.82,2.86-.03,5.74-.3,8.57.3,3.85.81,6.59,2.7,7.22,7.15.72,5.09-1.97,8.45-6.54,9.69-3.14.85-6.32.64-9.5.66-.57,0-.51-.39-.51-.76,0-2.7,0-5.4,0-8.1h0Z"/>
      </g>
    </g>
  </g>
</svg>