<?xml version="1.0" encoding="UTF-8"?>
<svg id="_レイヤー_2" data-name="レイヤー 2" xmlns="http://www.w3.org/2000/svg" viewBox="0 0 93.62 36.72">
  <defs>
    <style>
      .cls-1 {
        fill: #ea6100;
      }

      .cls-2 {
        fill: #fbcb00;
      }

      .cls-3 {
        fill: #15722c;
      }
    </style>
  </defs>
  <g id="_メイン" data-name="メイン">
    <g id="_デザイン" data-name="デザイン">
      <g>
        <circle class="cls-1" cx="15" cy="21.22" r="15"/>
        <path class="cls-2" d="m38.84,1.04l-4.59,27.53c-.16.94.75,1.69,1.65,1.37l27.45-10c.92-.33,1.11-1.55.33-2.15L40.82.26c-.74-.57-1.82-.14-1.98.78Z"/>
        <path class="cls-3" d="m87.04,36.69l-22.57-5.4c-.59-.14-.96-.75-.82-1.36l5.23-23.33c.14-.61.73-.99,1.32-.85l22.57,5.4c.59.14.96.75.82,1.36l-5.23,23.33c-.14.61-.73.99-1.32.85Z"/>
      </g>
    </g>
  </g>
</svg>