<?xml version="1.0" encoding="UTF-8"?>
<svg id="_レイヤー_2" data-name="レイヤー 2" xmlns="http://www.w3.org/2000/svg" viewBox="0 0 827.02 689.8">
  <defs>
    <style>
      .cls-1 {
        fill: #317241;
      }

      .cls-2 {
        fill: #ea6100;
      }

      .cls-3, .cls-4, .cls-5 {
        font-size: 16px;
      }

      .cls-3, .cls-5 {
        font-family: DNPShueiMGoStd-L-90ms-RKSJ-H, 'DNP ShueiMGoStd';
      }

      .cls-4 {
        font-family: DNPShueiMGoStd-B-90ms-RKSJ-H, 'DNP ShueiMGoStd';
      }

      .cls-4, .cls-6 {
        fill: #904e25;
      }

      .cls-7 {
        fill: #ffd300;
      }

      .cls-8 {
        fill: #ffd21a;
      }

      .cls-9 {
        fill: #fffff9;
      }

      .cls-10 {
        fill: #fbcb00;
      }

      .cls-5 {
        fill: #737061;
      }

      .cls-11 {
        fill: #ffffed;
      }

      .cls-12 {
        fill: #f2efde;
      }

      .cls-13 {
        fill: #fb7000;
      }

      .cls-14 {
        fill: #15722c;
      }
    </style>
  </defs>
  <g id="_メイン" data-name="メイン">
    <g id="_デザイン" data-name="デザイン">
      <g>
        <rect class="cls-11" width="827.02" height="689.8"/>
        <g>
          <path class="cls-9" d="m462.56,286.53c-8.38,55.82-39.94,90.72-56.72,109.27-20.33,22.47-55.85,61.74-112.04,69.66-50.2,7.08-88.58-14.85-124.49-35.37-42.38-24.21-117.37-67.05-125-143.56-5.6-56.16,28.14-99.96,37.85-112.58,64.15-83.3,175.22-76.27,195.04-75.02,22.2,1.4,134.69,8.52,174.29,91.09,19.46,40.58,13.18,82.41,11.07,96.5Z"/>
          <ellipse class="cls-12" cx="413.51" cy="553.09" rx="386.41" ry="110.8"/>
          <path class="cls-8" d="m607.61,544.81h57.43c.53,0,1.03.27,1.41.76.83,1.09,1.66,2.17,2.5,3.26,1.27,1.65.38,4.5-1.41,4.5h-59.32c-.92,0-1.72-.83-1.94-2.01-.2-1.09-.4-2.17-.61-3.26-.31-1.66.65-3.26,1.94-3.26Z"/>
          <text class="cls-4" transform="translate(376.67 67.37)"><tspan x="0" y="0">おしごとのこと</tspan></text>
          <g>
            <rect class="cls-14" x="706.16" y="25.91" width="85" height="75" rx="37.5" ry="37.5"/>
            <g>
              <rect class="cls-10" x="720.81" y="45.91" width="54.97" height="35" rx="1.09" ry="1.09"/>
              <path class="cls-2" d="m748.92,66.22l26.34-18.24c.92-.64.47-2.07-.65-2.07h-52.67c-1.12,0-1.57,1.44-.65,2.07l26.34,18.24c.39.27.91.27,1.3,0Z"/>
            </g>
          </g>
          <g>
            <path class="cls-6" d="m95.96,547.18h17.25v37.98c0,.71-.58,1.29-1.29,1.29h-14.66c-.71,0-1.29-.58-1.29-1.29v-37.98h0Z"/>
            <ellipse class="cls-14" cx="125.78" cy="536.43" rx="30.47" ry="30.39"/>
            <ellipse class="cls-14" cx="81.89" cy="536.43" rx="30.47" ry="30.39"/>
            <ellipse class="cls-14" cx="104.58" cy="506.04" rx="30.47" ry="30.39"/>
          </g>
          <path class="cls-10" d="m550.6,278.54l-56.32,61.5c-.71.78-.16,2.03.89,2.03h112.64c1.05,0,1.61-1.25.89-2.03l-56.32-61.5c-.48-.52-1.31-.52-1.79,0Z"/>
          <rect class="cls-2" x="493.96" y="341.61" width="115.06" height="28.98" rx=".89" ry=".89"/>
          <path class="cls-7" d="m330.53,474.51l-11.45-6.6c-.96-.56-1.19-1.94-.46-2.82,10.38-12.5,20.75-24.99,31.13-37.49.45-.54,1.15-.74,1.79-.51,4.69,1.7,9.39,3.4,14.08,5.1,1.16.42,1.53,2,.7,2.97-11.25,13-22.51,26-33.76,39-.52.6-1.35.75-2.03.36Z"/>
          <rect class="cls-2" x="434.07" y="399.61" width="57.11" height="62.22" rx=".92" ry=".92"/>
          <rect class="cls-2" x="610.65" y="400.01" width="57.11" height="62.22" rx=".92" ry=".92"/>
          <rect class="cls-10" x="491.17" y="400.08" width="119.33" height="61.37" rx="1.31" ry="1.31"/>
          <path class="cls-14" d="m551.95,434.56c-17.45,0-31.63,11.93-31.96,26.75,0,.29.27.53.61.53h62.7c.34,0,.62-.24.61-.53-.33-14.82-14.51-26.75-31.96-26.75Z"/>
          <rect class="cls-2" x="491.47" y="461.26" width="59.66" height="55.4" rx=".88" ry=".88"/>
          <rect class="cls-10" x="551.73" y="461.26" width="59.66" height="55.4" rx=".88" ry=".88"/>
          <rect class="cls-2" x="550.5" y="548.98" width="59.66" height="59.66" rx=".92" ry=".92"/>
          <path class="cls-10" d="m473.66,370.69c-12.92,8.69-25.85,17.37-38.77,26.06-1.53,1.03-.78,3.34,1.1,3.34,12.89.03,25.79.07,38.68.1,1.06,0,1.92-.82,1.92-1.83.03-8.72.06-17.44.1-26.15,0-1.49-1.75-2.37-3.02-1.51Z"/>
          <path class="cls-10" d="m630.23,370.79c12.92,8.69,25.85,17.37,38.77,26.06,1.53,1.03.78,3.34-1.1,3.34-12.89.03-25.79.07-38.68.1-1.06,0-1.92-.82-1.92-1.83-.03-8.72-.06-17.44-.1-26.15,0-1.49,1.75-2.37,3.02-1.51Z"/>
          <rect class="cls-10" x="609.87" y="548.98" width="59.66" height="59.66" rx=".92" ry=".92"/>
          <path class="cls-1" d="m491.26,543.98h-55.13c-.51,0-.99.27-1.35.76-.8,1.09-1.6,2.17-2.4,3.26-1.22,1.65-.36,4.5,1.35,4.5h56.94c.88,0,1.65-.83,1.86-2.01.19-1.09.39-2.17.58-3.26.3-1.66-.62-3.26-1.86-3.26Z"/>
          <rect class="cls-14" x="431.81" y="549.22" width="59.66" height="59.66" rx=".92" ry=".92"/>
          <rect class="cls-10" x="491.54" y="548.98" width="59.66" height="59.66" rx=".92" ry=".92"/>
          <rect class="cls-14" x="491.54" y="516.75" width="119.33" height="32.39" rx=".96" ry=".96"/>
          <g>
            <path class="cls-2" d="m482.72,537.69c0,2.8-7.63,5.06-17.05,5.06s-17.05-2.27-17.05-5.06v7.51c0,2.8,7.63,5.06,17.05,5.06s17.05-2.27,17.05-5.06v-7.51Z"/>
            <rect class="cls-2" x="448.63" y="492.62" width="34.09" height="51.36" rx=".64" ry=".64"/>
            <path class="cls-2" d="m448.63,498.9c0-2.8,7.63-5.06,17.05-5.06,9.41,0,17.05,2.27,17.05,5.06v-7.51c0-2.8-7.63-5.06-17.05-5.06s-17.05,2.27-17.05,5.06v7.51Z"/>
          </g>
          <rect class="cls-10" x="433.99" y="461.29" width="57.96" height="29.83" rx=".64" ry=".64"/>
          <g>
            <path class="cls-2" d="m657.42,537.69c0,2.8-7.63,5.06-17.05,5.06s-17.05-2.27-17.05-5.06v7.51c0,2.8,7.63,5.06,17.05,5.06s17.05-2.27,17.05-5.06v-7.51Z"/>
            <rect class="cls-2" x="623.33" y="492.62" width="34.09" height="51.36" rx=".64" ry=".64"/>
            <path class="cls-2" d="m623.33,498.9c0-2.8,7.63-5.06,17.05-5.06,9.41,0,17.05,2.27,17.05,5.06v-7.51c0-2.8-7.63-5.06-17.05-5.06s-17.05,2.27-17.05,5.06v7.51Z"/>
          </g>
          <rect class="cls-14" x="610.23" y="461.29" width="57.96" height="29.83" rx=".64" ry=".64"/>
          <g>
            <path class="cls-6" d="m174.15,469.66h12.2v26.88c0,.5-.41.91-.91.91h-10.37c-.5,0-.91-.41-.91-.91v-26.88h0Z"/>
            <ellipse class="cls-14" cx="195.24" cy="462.05" rx="21.55" ry="21.51"/>
            <ellipse class="cls-14" cx="164.2" cy="462.05" rx="21.55" ry="21.51"/>
            <ellipse class="cls-14" cx="180.25" cy="440.55" rx="21.55" ry="21.51"/>
          </g>
          <text class="cls-5" transform="translate(125.78 173.09) scale(.96 1)"><tspan x="0" y="0">きほんを土台に</tspan><tspan x="0" y="37.38">経験をつみあげる</tspan><tspan x="0" y="74.76">スキルをつみあげる</tspan><tspan x="0" y="112.13">信頼をつみあげる</tspan><tspan x="0" y="186.89">そうして長年愛されるデザインを作りたい</tspan></text>
          <g>
            <circle class="cls-2" cx="78.21" cy="67.2" r="25"/>
            <path class="cls-10" d="m117.01,33.75l-7.65,45.86c-.26,1.56,1.26,2.82,2.74,2.28l45.75-16.65c1.53-.56,1.84-2.59.55-3.58l-38.1-29.21c-1.24-.95-3.04-.24-3.29,1.3Z"/>
            <rect class="cls-14" x="161.35" y="46.06" width="42.28" height="42.28" rx="1.83" ry="1.83" transform="translate(75.84 229.82) rotate(-76.96)"/>
            <text class="cls-3" transform="translate(104.08 64.63)"><tspan class="cls-2"><tspan x="0" y="0">Shiho</tspan></tspan><tspan class="cls-14" x="0" y="17">desi</tspan><tspan class="cls-10" x="29.38" y="17">gn</tspan></text>
          </g>
          <text class="cls-4" transform="translate(543.98 67.37)"><tspan x="0" y="0">わたしのこと</tspan></text>
          <rect class="cls-14" x="475.4" y="370.5" width="59.66" height="29.83" rx=".65" ry=".65"/>
          <rect class="cls-14" x="571.4" y="370.64" width="59.66" height="29.83" rx=".65" ry=".65"/>
          <path class="cls-2" d="m395.25,583.57c-18.7,1.74-37.4,3.47-56.1,5.21-.62-38.23-1.24-76.45-1.86-114.68,19.06-.41,38.12-.83,57.18-1.24.26,36.9.52,73.8.77,110.71Z"/>
          <path class="cls-13" d="m339.5,588.77c-2.27-1.22-4.53-2.44-6.8-3.65-.57-37.42-1.15-74.84-1.72-112.26,2.15.65,4.31,1.3,6.46,1.96.69,37.99,1.38,75.97,2.06,113.96Z"/>
          <path class="cls-10" d="m364.02,432.86c-11.22,12.94-22.44,25.88-33.66,38.83-1.07,1.24-.19,3.19,1.43,3.15,23.48-.52,46.95-1.04,70.43-1.56,1.64-.04,2.43-2.06,1.27-3.24-12.26-12.42-24.51-24.85-36.77-37.27-.76-.77-1.99-.73-2.7.09Z"/>
          <path class="cls-13" d="m770.28,472.71c-2.4.65-4.79,1.31-7.19,1.96.12,0,.24,0,.36,0-.56,37.98-1.13,75.96-1.69,113.94,2.2-1.07,4.4-2.13,6.61-3.2.64-37.57,1.28-75.14,1.92-112.72Z"/>
          <path class="cls-2" d="m763.43,474.87c-18.65-.41-37.3-.82-55.95-1.22-.25,36.65-.51,73.3-.76,109.95,18.08,1.69,36.16,3.38,54.24,5.08.13.01.26.02.4.04.21-.1.43-.19.64-.29.61-37.85,1.22-75.7,1.83-113.54-.13,0-.26,0-.39,0Z"/>
          <path class="cls-14" d="m772.12,475.88l11.45-6.6c.96-.56,1.19-1.94.46-2.82-10.38-12.5-20.75-24.99-31.13-37.49-.45-.54-1.15-.74-1.79-.51-4.69,1.7-9.39,3.4-14.08,5.1-1.16.42-1.53,2-.7,2.97,11.25,13,22.51,26,33.76,39,.52.6,1.35.75,2.03.36Z"/>
          <path class="cls-14" d="m738.56,434.23c11.22,12.94,22.44,25.88,33.66,38.83,1.07,1.24.19,3.19-1.43,3.15-23.48-.52-46.95-1.04-70.43-1.56-1.64-.04-2.43-2.06-1.27-3.24,12.26-12.42,24.51-24.85,36.77-37.27.76-.77,1.99-.73,2.7.09Z"/>
        </g>
      </g>
    </g>
  </g>
</svg>